# Blender v2.70 (sub 0) OBJ File: ''
# www.blender.org
o Wing_50_255_50
v 0.065868 -0.074655 0.042254
v 0.061624 -0.153545 0.038323
v 0.180315 -0.131544 0.049128
v 0.065918 -0.074558 0.042261
v 0.779992 0.298640 0.036436
v 0.698238 0.404281 0.031429
v 0.659999 0.106325 0.057437
v 0.577388 0.222442 0.061169
v 0.608583 -0.154772 0.014627
v 0.256648 -0.118334 0.041491
v 0.305590 -0.254481 0.049024
v 0.726809 0.060862 0.070096
v 0.469976 -0.000519 0.075116
v 0.581378 -0.118185 0.055859
v 0.498846 -0.458935 0.077644
v 0.431864 -0.340787 0.071096
v 0.163492 -0.208868 0.063440
v 0.233796 -0.360062 0.069322
v 0.281244 0.156453 0.064615
v 0.324704 -0.459803 0.024433
v 0.727522 -0.113643 0.051014
v 0.912371 0.459803 0.038760
v 0.180242 -0.132090 0.038142
v 0.062712 -0.154010 0.027387
v 0.066746 -0.074231 0.031297
v 0.659925 0.104860 0.046535
v 0.697990 0.403751 0.020444
v 0.779974 0.297928 0.025459
v 0.576398 0.221831 0.050231
v 0.304792 -0.255244 0.038080
v 0.256093 -0.117943 0.030512
v 0.608139 -0.149352 0.005065
v 0.727023 0.060120 0.059123
v 0.581251 -0.113044 0.046135
v 0.470215 0.000193 0.064142
v 0.432644 -0.341460 0.060144
v 0.499890 -0.458948 0.066694
v 0.230726 -0.359976 0.058760
v 0.162915 -0.210608 0.052594
v 0.281751 0.156658 0.053628
v 0.325714 -0.458511 0.013556
v 0.727061 -0.110848 0.040385
v 0.912796 0.459611 0.027770
vt 0.000000 1.000000
vt 0.000000 0.000000
vt 0.189926 0.303882
vt 1.000000 0.808426
vt 0.500000 1.000000
vt 0.750000 0.750000
vt 0.250000 1.000000
vt 1.000000 0.125000
vt 0.312500 0.500000
vt 0.406250 0.250000
vt 1.000000 0.500000
vt 0.544474 0.632556
vt 0.787152 0.327399
vt 1.000000 0.000000
vt 0.844653 0.047327
vt 0.250000 0.000000
vt 0.500000 0.000000
vt 0.125000 1.000000
vt 0.750000 0.000000
vt 1.000000 0.250000
vt 1.000000 1.000000
vn -0.082257 -0.045184 0.995586
vn -0.076093 -0.032690 0.996565
vn 0.044026 0.081264 0.995720
vn 0.140468 0.068190 0.987734
vn 0.084615 0.085346 0.992752
vn -0.079580 0.157146 0.984364
vn -0.043208 -0.201068 0.978624
vn 0.159740 0.144681 0.976499
vn -0.028539 -0.756952 0.652847
vn 0.132082 0.099784 0.986204
vn -0.115825 -0.072993 0.990584
vn -0.126703 0.207119 0.970076
vn 0.084558 0.085326 0.992759
vn 0.115127 -0.093527 0.988938
vn -0.073683 -0.027786 0.996895
vn 0.147032 0.149001 0.977845
vn 0.019060 0.273806 0.961596
vn 0.373187 -0.076001 0.924638
vn -0.261787 -0.138761 0.955099
vn -0.289886 -0.111667 0.950524
vn 0.045286 -0.732194 0.679589
vn -0.033899 0.221546 0.974561
vn -0.002574 0.063666 0.997968
vn 0.079089 0.024238 0.996573
vn 0.036306 -0.108483 0.993435
vn 0.047450 -0.117417 0.991948
vn -0.038715 0.017393 0.999099
vn 0.082783 0.044607 -0.995569
vn -0.044044 -0.081309 -0.995715
vn -0.139576 -0.068455 -0.987842
vn -0.079198 -0.082847 -0.993410
vn 0.079895 -0.157132 -0.984341
vn 0.044044 0.198874 -0.979035
vn -0.152044 -0.141558 -0.978184
vn 0.020078 0.755542 -0.654793
vn -0.132617 -0.100909 -0.986017
vn 0.115537 0.072598 -0.990647
vn 0.127314 -0.206650 -0.970096
vn -0.084103 -0.084557 -0.992863
vn -0.117012 0.094159 -0.988657
vn 0.074098 0.027415 -0.996874
vn -0.146528 -0.147697 -0.978118
vn -0.012389 -0.265109 -0.964139
vn -0.364481 0.074475 -0.928228
vn 0.260580 0.142035 -0.954947
vn 0.290191 0.113118 -0.950260
vn -0.037732 0.736286 -0.675617
vn 0.033270 -0.224145 -0.973988
vn 0.002627 -0.063895 -0.997953
vn -0.078815 -0.024791 -0.996581
vn -0.040807 0.108848 -0.993221
vn -0.045759 0.112966 -0.992545
vn 0.038609 -0.017436 -0.999102
vn -0.885986 0.460654 -0.053166
vn -0.993337 0.055186 -0.101171
vn -0.995335 0.057409 -0.077536
vn -0.827290 0.560081 0.043589
vn -0.833410 0.552600 -0.007844
vn 0.976391 -0.215654 0.012387
vn 0.976340 -0.213633 0.033486
vn 0.898143 -0.363329 -0.247650
vn 0.942636 -0.321391 0.090256
vn -0.884613 -0.391119 0.253941
vn -0.902486 -0.415190 0.114616
vn -0.515930 -0.841100 0.162381
vn -0.475341 -0.879746 -0.009882
vn -0.729712 0.682872 -0.034741
vn -0.730331 0.682772 -0.020963
vn -0.744906 -0.650891 -0.146481
vn -0.680726 -0.706899 0.192107
vn -0.002790 -0.999996 0.000921
vn 0.039846 -0.992658 -0.114207
vn 0.364943 -0.896404 -0.251546
vn 0.412913 -0.783978 -0.463552
vn -0.215872 0.976387 0.008255
vn -0.217747 0.975385 -0.034777
vn 0.999806 -0.001929 0.019627
vn 0.999119 0.008574 -0.041083
vn 0.771766 -0.634588 0.040929
vn 0.771840 -0.634564 0.039898
vn -0.250156 0.967336 -0.041020
vn -0.250046 0.967869 -0.026583
s off
f 1/1/1 2/2/1 3/3/1
f 4/1/2 1/1/2 3/3/2
f 5/4/3 6/5/3 7/6/3
f 7/6/4 6/5/4 8/7/4
f 9/8/5 10/9/5 11/10/5
f 7/6/6 12/11/6 5/4/6
f 13/12/7 10/9/7 14/13/7
f 15/14/8 9/8/8 16/15/8
f 9/8/9 14/13/9 10/9/9
f 17/16/10 18/17/10 11/10/10
f 19/18/11 10/9/11 13/12/11
f 2/2/12 17/16/12 3/3/12
f 11/10/13 10/9/13 3/3/13
f 3/3/14 10/9/14 19/18/14
f 3/3/15 19/18/15 4/1/15
f 17/16/16 11/10/16 3/3/16
f 11/10/17 16/15/17 9/8/17
f 11/10/18 18/17/18 20/19/18
f 11/10/19 20/19/19 16/15/19
f 16/15/20 20/19/20 15/14/20
f 9/8/21 21/20/21 14/13/21
f 12/11/22 7/6/22 13/12/22
f 13/12/23 8/7/23 19/18/23
f 13/12/24 7/6/24 8/7/24
f 14/13/25 21/20/25 12/11/25
f 13/12/26 14/13/26 12/11/26
f 5/4/27 22/21/27 6/5/27
f 23/3/28 24/2/28 25/1/28
f 26/6/29 27/5/29 28/4/29
f 29/7/30 27/5/30 26/6/30
f 30/10/31 31/9/31 32/8/31
f 28/4/32 33/11/32 26/6/32
f 34/13/33 31/9/33 35/12/33
f 36/15/34 32/8/34 37/14/34
f 31/9/35 34/13/35 32/8/35
f 30/10/36 38/17/36 39/16/36
f 35/12/37 31/9/37 40/18/37
f 23/3/38 39/16/38 24/2/38
f 23/3/39 31/9/39 30/10/39
f 40/18/40 31/9/40 23/3/40
f 25/1/41 40/18/41 23/3/41
f 23/3/42 30/10/42 39/16/42
f 32/8/43 36/15/43 30/10/43
f 41/19/44 38/17/44 30/10/44
f 36/15/45 41/19/45 30/10/45
f 37/14/46 41/19/46 36/15/46
f 34/13/47 42/20/47 32/8/47
f 35/12/48 26/6/48 33/11/48
f 40/18/49 29/7/49 35/12/49
f 29/7/50 26/6/50 35/12/50
f 33/11/51 42/20/51 34/13/51
f 33/11/52 34/13/52 35/12/52
f 27/5/53 43/21/53 28/4/53
f 1/1/54 4/1/54 25/1/54
f 25/1/55 24/2/55 2/2/55
f 2/2/56 1/1/56 25/1/56
f 27/5/57 29/7/57 8/7/57
f 8/7/58 6/5/58 27/5/58
f 33/11/59 28/4/59 5/4/59
f 5/4/60 12/11/60 33/11/60
f 37/14/61 32/8/61 9/8/61
f 9/8/62 15/14/62 37/14/62
f 39/16/63 38/17/63 18/17/63
f 18/17/64 17/16/64 39/16/64
f 24/2/65 39/16/65 17/16/65
f 17/16/66 2/2/66 24/2/66
f 40/18/67 25/1/67 4/1/67
f 4/1/68 19/18/68 40/18/68
f 38/17/69 41/19/69 20/19/69
f 20/19/70 18/17/70 38/17/70
f 41/19/71 37/14/71 15/14/71
f 15/14/72 20/19/72 41/19/72
f 32/8/73 42/20/73 21/20/73
f 21/20/74 9/8/74 32/8/74
f 29/7/75 40/18/75 19/18/75
f 19/18/76 8/7/76 29/7/76
f 42/20/77 33/11/77 12/11/77
f 12/11/78 21/20/78 42/20/78
f 28/4/79 43/21/79 22/21/79
f 22/21/80 5/4/80 28/4/80
f 43/21/81 27/5/81 6/5/81
f 6/5/82 22/21/82 43/21/82
