# Blender v2.70 (sub 0) OBJ File: ''
# www.blender.org
o Sphere_250_250_250
v 0.000000 -0.000000 1.680673
v 0.840336 -0.000000 1.455505
v 0.000000 0.840336 1.455505
v 1.455505 -0.000000 0.840336
v 0.920542 0.920542 1.062951
v 0.000000 1.455505 0.840336
v 1.680673 0.000000 0.000000
v 1.455505 0.840336 0.000000
v 0.840336 1.455505 0.000000
v 0.000000 1.680673 0.000000
v -0.840336 -0.000000 1.455505
v -0.920542 0.920542 1.062951
v -1.455505 -0.000000 0.840336
v -0.840336 1.455505 0.000000
v -1.455505 0.840336 0.000000
v -1.680673 0.000000 0.000000
v 0.000000 -0.840336 1.455505
v -0.920542 -0.920542 1.062951
v 0.000000 -1.455505 0.840336
v -1.455505 -0.840336 -0.000000
v -0.840336 -1.455505 -0.000000
v 0.000000 -1.680673 -0.000000
v 0.920542 -0.920542 1.062951
v 0.840336 -1.455505 -0.000000
v 1.455505 -0.840336 -0.000000
v 0.000000 0.000000 -1.680673
v 0.000000 0.840336 -1.455505
v 0.840336 0.000000 -1.455505
v 0.000000 1.455505 -0.840336
v 0.920542 0.920542 -1.062951
v 1.455505 0.000000 -0.840336
v -0.840336 0.000000 -1.455505
v -1.455505 0.000000 -0.840336
v -0.920542 0.920542 -1.062951
v 0.000000 -0.840336 -1.455505
v 0.000000 -1.455505 -0.840336
v -0.920542 -0.920542 -1.062951
v 0.920542 -0.920542 -1.062951
vt 0.625000 1.000000
vt 0.500000 0.833333
vt 0.750000 0.833333
vt 0.500000 0.666667
vt 0.625000 0.717953
vt 0.750000 0.666667
vt 0.500000 0.500000
vt 0.583333 0.500000
vt 0.666667 0.500000
vt 0.750000 0.500000
vt 0.875000 1.000000
vt 1.000000 0.833333
vt 0.875000 0.717953
vt 1.000000 0.666667
vt 0.833333 0.500000
vt 0.916667 0.500000
vt 1.000000 0.500000
vt 0.125000 1.000000
vt 0.000000 0.833333
vt 0.250000 0.833333
vt 0.000000 0.666667
vt 0.125000 0.717953
vt 0.250000 0.666667
vt 0.000000 0.500000
vt 0.083333 0.500000
vt 0.166667 0.500000
vt 0.250000 0.500000
vt 0.375000 1.000000
vt 0.375000 0.717953
vt 0.333333 0.500000
vt 0.416667 0.500000
vt 0.625000 0.000000
vt 0.750000 0.166667
vt 0.500000 0.166667
vt 0.750000 0.333333
vt 0.625000 0.282047
vt 0.500000 0.333333
vt 0.875000 0.000000
vt 1.000000 0.166667
vt 1.000000 0.333333
vt 0.875000 0.282047
vt 0.125000 0.000000
vt 0.250000 0.166667
vt 0.000000 0.166667
vt 0.250000 0.333333
vt 0.125000 0.282047
vt 0.000000 0.333333
vt 0.375000 0.000000
vt 0.375000 0.282047
vn 0.250563 0.250563 0.935113
vn 0.687593 0.233306 0.687593
vn 0.343016 0.343016 0.874460
vn 0.233306 0.687593 0.687593
vn 0.935113 0.250563 0.250563
vn 0.833915 0.390247 0.390247
vn 0.676815 0.676815 0.289558
vn 0.390247 0.833915 0.390247
vn 0.250563 0.935113 0.250564
vn -0.250563 0.250563 0.935113
vn -0.233306 0.687593 0.687593
vn -0.343016 0.343016 0.874460
vn -0.687593 0.233306 0.687593
vn -0.250563 0.935113 0.250564
vn -0.390247 0.833915 0.390247
vn -0.676815 0.676815 0.289558
vn -0.833915 0.390247 0.390247
vn -0.935113 0.250563 0.250563
vn -0.250564 -0.250564 0.935113
vn -0.687593 -0.233306 0.687593
vn -0.343016 -0.343016 0.874460
vn -0.233306 -0.687593 0.687593
vn -0.935113 -0.250564 0.250563
vn -0.833915 -0.390247 0.390247
vn -0.676815 -0.676815 0.289558
vn -0.390247 -0.833915 0.390247
vn -0.250563 -0.935113 0.250563
vn 0.250564 -0.250564 0.935113
vn 0.233306 -0.687593 0.687593
vn 0.343016 -0.343016 0.874460
vn 0.687593 -0.233306 0.687593
vn 0.250563 -0.935113 0.250563
vn 0.390247 -0.833915 0.390247
vn 0.676815 -0.676815 0.289558
vn 0.833915 -0.390247 0.390247
vn 0.935113 -0.250564 0.250563
vn 0.250564 0.250564 -0.935113
vn 0.233306 0.687593 -0.687593
vn 0.343016 0.343016 -0.874460
vn 0.687593 0.233306 -0.687593
vn 0.250563 0.935113 -0.250563
vn 0.390247 0.833915 -0.390247
vn 0.676815 0.676815 -0.289558
vn 0.833915 0.390247 -0.390247
vn 0.935113 0.250564 -0.250563
vn -0.250564 0.250564 -0.935113
vn -0.687593 0.233306 -0.687593
vn -0.343016 0.343016 -0.874460
vn -0.233306 0.687593 -0.687593
vn -0.935113 0.250564 -0.250563
vn -0.833915 0.390247 -0.390247
vn -0.676815 0.676815 -0.289558
vn -0.390247 0.833915 -0.390247
vn -0.250563 0.935113 -0.250563
vn -0.250563 -0.250563 -0.935113
vn -0.233306 -0.687593 -0.687593
vn -0.343016 -0.343016 -0.874460
vn -0.687593 -0.233306 -0.687593
vn -0.250563 -0.935113 -0.250564
vn -0.390247 -0.833915 -0.390247
vn -0.676815 -0.676815 -0.289558
vn -0.833915 -0.390247 -0.390247
vn -0.935113 -0.250563 -0.250563
vn 0.250563 -0.250563 -0.935113
vn 0.687593 -0.233306 -0.687593
vn 0.343016 -0.343016 -0.874460
vn 0.233306 -0.687593 -0.687593
vn 0.935113 -0.250563 -0.250563
vn 0.833915 -0.390247 -0.390247
vn 0.676815 -0.676815 -0.289558
vn 0.390247 -0.833915 -0.390247
vn 0.250563 -0.935113 -0.250564
s off
f 1/1/1 2/2/1 3/3/1
f 2/2/2 4/4/2 5/5/2
f 2/2/3 5/5/3 3/3/3
f 3/3/4 5/5/4 6/6/4
f 4/4/5 7/7/5 8/8/5
f 4/4/6 8/8/6 5/5/6
f 5/5/7 8/8/7 9/9/7
f 5/5/8 9/9/8 6/6/8
f 6/6/9 9/9/9 10/10/9
f 1/11/10 3/3/10 11/12/10
f 3/3/11 6/6/11 12/13/11
f 3/3/12 12/13/12 11/12/12
f 11/12/13 12/13/13 13/14/13
f 6/6/14 10/10/14 14/15/14
f 6/6/15 14/15/15 12/13/15
f 12/13/16 14/15/16 15/16/16
f 12/13/17 15/16/17 13/14/17
f 13/14/18 15/16/18 16/17/18
f 1/18/19 11/19/19 17/20/19
f 11/19/20 13/21/20 18/22/20
f 11/19/21 18/22/21 17/20/21
f 17/20/22 18/22/22 19/23/22
f 13/21/23 16/24/23 20/25/23
f 13/21/24 20/25/24 18/22/24
f 18/22/25 20/25/25 21/26/25
f 18/22/26 21/26/26 19/23/26
f 19/23/27 21/26/27 22/27/27
f 1/28/28 17/20/28 2/2/28
f 17/20/29 19/23/29 23/29/29
f 17/20/30 23/29/30 2/2/30
f 2/2/31 23/29/31 4/4/31
f 19/23/32 22/27/32 24/30/32
f 19/23/33 24/30/33 23/29/33
f 23/29/34 24/30/34 25/31/34
f 23/29/35 25/31/35 4/4/35
f 4/4/36 25/31/36 7/7/36
f 26/32/37 27/33/37 28/34/37
f 27/33/38 29/35/38 30/36/38
f 27/33/39 30/36/39 28/34/39
f 28/34/40 30/36/40 31/37/40
f 29/35/41 10/10/41 9/9/41
f 29/35/42 9/9/42 30/36/42
f 30/36/43 9/9/43 8/8/43
f 30/36/44 8/8/44 31/37/44
f 31/37/45 8/8/45 7/7/45
f 26/38/46 32/39/46 27/33/46
f 32/39/47 33/40/47 34/41/47
f 32/39/48 34/41/48 27/33/48
f 27/33/49 34/41/49 29/35/49
f 33/40/50 16/17/50 15/16/50
f 33/40/51 15/16/51 34/41/51
f 34/41/52 15/16/52 14/15/52
f 34/41/53 14/15/53 29/35/53
f 29/35/54 14/15/54 10/10/54
f 26/42/55 35/43/55 32/44/55
f 35/43/56 36/45/56 37/46/56
f 35/43/57 37/46/57 32/44/57
f 32/44/58 37/46/58 33/47/58
f 36/45/59 22/27/59 21/26/59
f 36/45/60 21/26/60 37/46/60
f 37/46/61 21/26/61 20/25/61
f 37/46/62 20/25/62 33/47/62
f 33/47/63 20/25/63 16/24/63
f 26/48/64 28/34/64 35/43/64
f 28/34/65 31/37/65 38/49/65
f 28/34/66 38/49/66 35/43/66
f 35/43/67 38/49/67 36/45/67
f 31/37/68 7/7/68 25/31/68
f 31/37/69 25/31/69 38/49/69
f 38/49/70 25/31/70 24/30/70
f 38/49/71 24/30/71 36/45/71
f 36/45/72 24/30/72 22/27/72
