# Blender v2.70 (sub 0) OBJ File: ''
# www.blender.org
o Sphere_0_30500_30500
v 0.000000 -0.500000 0.000000
v 0.361804 -0.223610 0.262863
v -0.138194 -0.223610 0.425325
v -0.447213 -0.223608 0.000000
v -0.138194 -0.223610 -0.425325
v 0.361804 -0.223610 -0.262863
v 0.138194 0.223610 0.425325
v -0.361804 0.223610 0.262863
v -0.361804 0.223610 -0.262863
v 0.138194 0.223610 -0.425325
v 0.447213 0.223608 0.000000
v 0.000000 0.500000 0.000000
v -0.081228 -0.425327 0.249998
v 0.212661 -0.425327 0.154506
v 0.131434 -0.262869 0.404506
v 0.425324 -0.262868 0.000000
v 0.212661 -0.425327 -0.154506
v -0.262865 -0.425326 0.000000
v -0.344095 -0.262868 0.249998
v -0.081228 -0.425327 -0.249998
v -0.344095 -0.262868 -0.249998
v 0.131434 -0.262869 -0.404506
v 0.475529 0.000000 0.154506
v 0.475529 0.000000 -0.154506
v 0.000000 0.000000 0.500000
v 0.293893 0.000000 0.404508
v -0.475529 0.000000 0.154506
v -0.293893 0.000000 0.404508
v -0.293893 0.000000 -0.404508
v -0.475529 0.000000 -0.154506
v 0.293893 0.000000 -0.404508
v 0.000000 0.000000 -0.500000
v 0.344095 0.262868 0.249998
v -0.131434 0.262869 0.404506
v -0.425324 0.262868 0.000000
v -0.131434 0.262869 -0.404506
v 0.344095 0.262868 -0.249998
v 0.081228 0.425327 0.249998
v 0.262865 0.425326 0.000000
v -0.212661 0.425327 0.154506
v -0.212661 0.425327 -0.154506
v 0.081228 0.425327 -0.249998
vn -0.102381 0.943523 -0.315090
vn -0.700224 0.661699 -0.268032
vn 0.268034 0.943523 -0.194737
vn 0.268034 0.943523 0.194737
vn -0.102381 0.943523 0.315090
vn -0.904989 0.330385 -0.268032
vn -0.024747 0.330386 -0.943521
vn 0.889697 0.330385 -0.315095
vn 0.574602 0.330388 0.748784
vn -0.534576 0.330387 0.777865
vn -0.802609 0.125627 -0.583126
vn 0.306569 0.125629 -0.943522
vn 0.992077 0.125628 0.000000
vn 0.306569 0.125629 0.943522
vn -0.802609 0.125627 0.583126
vn -0.408946 -0.661698 -0.628425
vn 0.471300 -0.661698 -0.583122
vn 0.700224 -0.661699 0.268032
vn -0.038530 -0.661699 0.748779
vn -0.724042 -0.661695 0.194736
vn 0.038531 0.661699 -0.748779
vn -0.187594 0.794658 -0.577345
vn -0.471300 0.661699 -0.583122
vn -0.700224 0.661699 0.268032
vn -0.607060 0.794656 0.000000
vn -0.331305 0.943524 0.000000
vn 0.724042 0.661695 -0.194736
vn 0.491120 0.794657 -0.356821
vn 0.408946 0.661698 -0.628425
vn 0.408946 0.661698 0.628425
vn 0.491120 0.794657 0.356821
vn 0.724042 0.661695 0.194736
vn -0.471300 0.661699 0.583122
vn -0.187594 0.794658 0.577345
vn 0.038531 0.661699 0.748779
vn -0.992077 -0.125628 0.000000
vn -0.982246 0.187598 0.000000
vn -0.904989 0.330385 0.268032
vn -0.306569 -0.125629 -0.943522
vn -0.303531 0.187597 -0.934171
vn -0.534576 0.330386 -0.777865
vn 0.802609 -0.125627 -0.583126
vn 0.794656 0.187595 -0.577348
vn 0.574602 0.330388 -0.748784
vn 0.802609 -0.125627 0.583126
vn 0.794656 0.187595 0.577348
vn 0.889697 0.330385 0.315095
vn -0.306569 -0.125629 0.943522
vn -0.303531 0.187597 0.934171
vn -0.024747 0.330386 0.943521
vn -0.574602 -0.330388 -0.748784
vn -0.794656 -0.187595 -0.577348
vn -0.889697 -0.330385 -0.315095
vn 0.534576 -0.330386 -0.777865
vn 0.303531 -0.187597 -0.934171
vn 0.024747 -0.330386 -0.943521
vn 0.904989 -0.330385 0.268032
vn 0.982246 -0.187598 0.000000
vn 0.904989 -0.330385 -0.268032
vn 0.024747 -0.330386 0.943521
vn 0.303531 -0.187597 0.934171
vn 0.534576 -0.330386 0.777865
vn -0.889697 -0.330385 0.315095
vn -0.794656 -0.187595 0.577348
vn -0.574602 -0.330388 0.748784
vn -0.268034 -0.943523 -0.194737
vn -0.491119 -0.794657 -0.356821
vn -0.724042 -0.661695 -0.194736
vn 0.102381 -0.943523 -0.315090
vn 0.187594 -0.794658 -0.577345
vn -0.038530 -0.661699 -0.748779
vn 0.331305 -0.943524 0.000000
vn 0.607060 -0.794656 0.000000
vn 0.700224 -0.661699 -0.268032
vn 0.102381 -0.943523 0.315090
vn 0.187594 -0.794658 0.577345
vn 0.471300 -0.661699 0.583122
vn -0.268034 -0.943523 0.194737
vn -0.491119 -0.794657 0.356821
vn -0.408946 -0.661699 0.628425
s off
f 1//1 13//1 14//1
f 2//2 16//2 14//2
f 1//3 18//3 13//3
f 1//4 20//4 18//4
f 1//5 17//5 20//5
f 2//6 23//6 16//6
f 3//7 25//7 15//7
f 4//8 27//8 19//8
f 5//9 29//9 21//9
f 6//10 31//10 22//10
f 2//11 26//11 23//11
f 3//12 28//12 25//12
f 4//13 30//13 27//13
f 5//14 32//14 29//14
f 6//15 24//15 31//15
f 7//16 38//16 33//16
f 8//17 40//17 34//17
f 9//18 41//18 35//18
f 10//19 42//19 36//19
f 11//20 39//20 37//20
f 13//21 3//21 15//21
f 13//22 15//22 14//22
f 14//23 15//23 2//23
f 16//24 6//24 17//24
f 16//25 17//25 14//25
f 14//26 17//26 1//26
f 18//27 4//27 19//27
f 18//28 19//28 13//28
f 13//29 19//29 3//29
f 20//30 5//30 21//30
f 20//31 21//31 18//31
f 18//32 21//32 4//32
f 17//33 6//33 22//33
f 17//34 22//34 20//34
f 20//35 22//35 5//35
f 23//36 11//36 24//36
f 23//37 24//37 16//37
f 16//38 24//38 6//38
f 25//39 7//39 26//39
f 25//40 26//40 15//40
f 15//41 26//41 2//41
f 27//42 8//42 28//42
f 27//43 28//43 19//43
f 19//44 28//44 3//44
f 29//45 9//45 30//45
f 29//46 30//46 21//46
f 21//47 30//47 4//47
f 31//48 10//48 32//48
f 31//49 32//49 22//49
f 22//50 32//50 5//50
f 26//51 7//51 33//51
f 26//52 33//52 23//52
f 23//53 33//53 11//53
f 28//54 8//54 34//54
f 28//55 34//55 25//55
f 25//56 34//56 7//56
f 30//57 9//57 35//57
f 30//58 35//58 27//58
f 27//59 35//59 8//59
f 32//60 10//60 36//60
f 32//61 36//61 29//61
f 29//62 36//62 9//62
f 24//63 11//63 37//63
f 24//64 37//64 31//64
f 31//65 37//65 10//65
f 38//66 12//66 39//66
f 38//67 39//67 33//67
f 33//68 39//68 11//68
f 40//69 12//69 38//69
f 40//70 38//70 34//70
f 34//71 38//71 7//71
f 41//72 12//72 40//72
f 41//73 40//73 35//73
f 35//74 40//74 8//74
f 42//75 12//75 41//75
f 42//76 41//76 36//76
f 36//77 41//77 9//77
f 39//78 12//78 42//78
f 39//79 42//79 37//79
f 37//80 42//80 10//80
