# Blender v2.70 (sub 0) OBJ File: ''
# www.blender.org
mtllib tile.mtl
o 0_255_255_255
v 1.953719 0.000001 -6.478964
v 0.976860 1.691972 -6.478963
v 0.976860 1.691971 0.000000
v 1.953719 0.000000 0.000000
v -0.976860 1.691972 -6.478963
v -0.976860 1.691971 0.000000
v -1.953719 0.000001 -6.478964
v -1.953719 0.000000 0.000000
v -0.976860 -1.691970 -6.478964
v -0.976860 -1.691971 -0.000000
v 0.976860 -1.691970 -6.478964
v 0.976860 -1.691971 -0.000000
vt 0.916667 0.000000
vt 0.916667 1.000000
vt 0.750000 1.000000
vt 1.083333 0.000000
vt 1.083333 1.000000
vt 0.250000 0.000000
vt 0.250000 1.000000
vt 0.083333 1.000000
vt 0.416667 0.000000
vt 0.416667 1.000000
vt 0.583333 0.000000
vt 0.583333 1.000000
vt 0.750000 0.000000
vt 0.066987 0.250000
vt 0.500000 1.000000
vt 0.933013 0.250000
vt 0.066987 0.750000
vt 0.933013 0.750000
vt 0.500000 0.000000
vt 0.083333 0.000000
vn 0.866026 0.500000 0.000000
vn 0.000000 1.000000 0.000000
vn -0.866026 0.500000 0.000000
vn -0.866026 -0.500000 -0.000000
vn 0.000000 -1.000000 -0.000000
vn 0.866026 -0.500000 -0.000000
vn 0.000000 0.000000 -1.000000
vn 0.000000 -0.000000 1.000000
vn -0.866025 -0.500000 -0.000000
usemtl None
s off
f 2/1/1 3/2/1 4/3/1
f 5/4/2 6/5/2 3/2/2
f 7/6/3 8/7/3 6/8/3
f 9/9/4 10/10/4 8/7/4
f 11/11/5 12/12/5 10/10/5
f 1/13/6 4/3/6 12/12/6
f 5/14/7 1/15/7 9/16/7
f 2/17/7 1/15/7 5/14/7
f 9/16/7 1/15/7 11/18/7
f 6/14/8 8/19/8 12/18/8
f 8/19/8 10/16/8 12/18/8
f 4/15/8 3/17/8 12/18/8
f 1/13/1 2/1/1 4/3/1
f 2/1/2 5/4/2 3/2/2
f 5/20/3 7/6/3 6/8/3
f 7/6/9 9/9/9 8/7/9
f 9/9/5 11/11/5 10/10/5
f 11/11/6 1/13/6 12/12/6
f 7/19/7 5/14/7 9/16/7
f 3/17/8 6/14/8 12/18/8
